HIERARCHY
ROOT Hips
{
	OFFSET 0.000000 0.000000 0.000000 
	CHANNELS 6 Xposition Yposition Zposition Zrotation Yrotation Xrotation
	JOINT LeftUpLeg
	{
		OFFSET 1.363060 -1.794630 0.839290 
		CHANNELS 3 Zrotation Yrotation Xrotation
		JOINT LeftLeg
		{
			OFFSET 2.448110 -6.726130 0.000000 
			CHANNELS 3 Zrotation Yrotation Xrotation
			JOINT LeftFoot
			{
				OFFSET 2.562200 -7.039590 0.000000 
				CHANNELS 3 Zrotation Yrotation Xrotation
				JOINT LeftToeBase
				{
					OFFSET 0.157640 -0.433110 2.322550 
					CHANNELS 3 Zrotation Yrotation Xrotation
					End Site
					{
						OFFSET 0.000000 0.000000 0.000000 
					}
				}
			}
		}
	}
	JOINT RightUpLeg
	{
		OFFSET -1.305520 -1.794630 0.839290 
		CHANNELS 3 Zrotation Yrotation Xrotation
		JOINT RightLeg
		{
			OFFSET -2.542530 -6.985550 0.000000 
			CHANNELS 3 Zrotation Yrotation Xrotation
			JOINT RightFoot
			{
				OFFSET -2.568260 -7.056230 0.000000 
				CHANNELS 3 Zrotation Yrotation Xrotation
				JOINT RightToeBase
				{
					OFFSET -0.164730 -0.452590 2.363150 
					CHANNELS 3 Zrotation Yrotation Xrotation
					End Site
					{
						OFFSET 0.000000 0.000000 0.000000 
					}
				}
			}
		}
	}
	JOINT Spine
	{
		OFFSET 0.028270 2.035590 -0.193380 
		CHANNELS 3 Zrotation Yrotation Xrotation
		JOINT Spine1
		{
			OFFSET 0.056720 2.048850 -0.042750 
			CHANNELS 3 Zrotation Yrotation Xrotation
			JOINT Neck1
			{
				OFFSET -0.054170 1.746240 0.172020 
				CHANNELS 3 Zrotation Yrotation Xrotation
				JOINT Head
				{
					OFFSET 0.104070 1.761360 -0.123970 
					CHANNELS 3 Zrotation Yrotation Xrotation
					End Site
					{
						OFFSET 0.000000 0.000000 0.000000 
					}
				}
			}
			JOINT LeftArm
			{
				OFFSET 3.362410 1.200890 -0.311210 
				CHANNELS 3 Zrotation Yrotation Xrotation
				JOINT LeftForeArm
				{
					OFFSET 4.983000 -0.000000 -0.000000 
					CHANNELS 3 Zrotation Yrotation Xrotation
					JOINT LeftHand
					{
						OFFSET 3.483560 -0.000000 -0.000000 
						CHANNELS 3 Zrotation Yrotation Xrotation
						JOINT LeftHandIndex1
						{
							OFFSET 0.715260 -0.000000 -0.000000 
							CHANNELS 3 Zrotation Yrotation Xrotation
							End Site
							{
								OFFSET 0.000000 0.000000 0.000000 
							}
						}
					}
				}
			}
			JOINT RightArm
			{
				OFFSET -3.136600 1.374050 -0.404650 
				CHANNELS 3 Zrotation Yrotation Xrotation
				JOINT RightForeArm
				{
					OFFSET -5.241900 -0.000000 -0.000000 
					CHANNELS 3 Zrotation Yrotation Xrotation
					JOINT RightHand
					{
						OFFSET -3.444170 -0.000000 -0.000000 
						CHANNELS 3 Zrotation Yrotation Xrotation
						JOINT RightHandIndex1
						{
							OFFSET -0.622530 -0.000000 -0.000000 
							CHANNELS 3 Zrotation Yrotation Xrotation
							End Site
							{
								OFFSET 0.000000 0.000000 0.000000 
							}
						}
					}
				}
			}
		}
	}
}
MOTION
Frames: 7
Frame Time: 0.041667
-35.220349 17.292581 3.642644 -177.739228 2.616081 -174.835027 -10.084677 -18.993574 -11.484537 -9.451161 7.079724 14.345919 -4.290247 16.975354 -17.493304 10.407000 -17.632500 -60.840300 7.065603 3.598479 -1.008698 7.431151 0.299272 7.712881 0.137694 -2.248541 14.130303 0.000000 0.000000 0.000000 0.981530 2.887211 -4.914801 -0.735404 1.440420 -14.121854 7.251222 -8.784006 16.254599 2.187500 -4.683400 14.468100 -89.873524 12.059199 14.849173 16.980301 -30.266478 -5.965567 -0.529957 2.206875 7.768940 -7.125000 0.000000 0.000000 76.381393 -13.879929 48.234686 -22.542955 36.901020 -6.195607 1.402296 -2.153275 -20.102197 7.125000 0.000000 0.000000 
-35.224097 17.292030 3.642534 -177.777380 2.602035 -174.844184 -10.137021 -18.955213 -11.465882 -9.473070 7.030198 14.235299 -4.341865 17.088766 -17.379632 10.388600 -17.622700 -60.779500 7.065751 3.598407 -1.008906 7.431170 0.299185 7.712811 0.137577 -2.248638 14.130268 0.000000 0.000000 0.000000 0.974283 2.902921 -4.916354 -0.720899 1.455692 -14.145226 7.212246 -8.684191 16.233681 2.188900 -4.654900 14.431400 -89.924607 12.017663 15.109305 17.209071 -30.499606 -6.046615 -0.529386 2.207128 7.339380 -7.125000 0.000000 0.000000 76.533064 -13.974253 48.366627 -22.869846 37.220364 -6.327724 1.402938 -2.161088 -20.005104 7.125000 0.000000 0.000000 
-35.231154 17.293353 3.642865 -177.904442 2.620810 -174.836960 -10.290444 -19.052146 -11.402645 -9.507622 7.016326 14.190004 -4.170338 16.717066 -17.538632 10.253800 -17.550100 -60.333300 7.065650 3.598431 -1.008770 7.431168 0.299308 7.712878 0.137397 -2.248510 14.130303 0.000000 0.000000 0.000000 0.964672 2.902590 -4.910835 -0.702220 1.469660 -14.122563 7.025610 -8.558528 16.186290 2.062900 -4.604000 14.351100 -89.911888 11.995266 15.512326 17.481003 -30.781401 -6.144278 -0.546802 2.203714 6.913848 -7.125000 0.000000 0.000000 76.531524 -13.868545 48.741605 -23.250015 37.558819 -6.468164 1.421094 -2.150942 -20.329140 7.125000 0.000000 0.000000 
-35.238210 17.295007 3.644739 -177.977136 2.652731 -174.823935 -10.353063 -19.229060 -11.316859 -9.517634 7.016202 14.184072 -3.810300 15.872473 -17.863901 10.021900 -17.422100 -59.561400 7.066064 3.598204 -1.009420 7.431225 0.298994 7.712660 0.137220 -2.248822 14.130157 0.000000 0.000000 0.000000 0.966805 2.905454 -4.903885 -0.672470 1.483039 -14.040217 6.677986 -8.613233 16.315438 1.772300 -4.606900 14.492400 -89.971437 11.895441 15.726679 17.645290 -30.966840 -6.216219 -0.538729 2.207380 6.700548 -7.125000 0.000000 0.000000 76.409328 -13.722938 49.068687 -23.616117 37.845212 -6.580043 1.462526 -2.112201 -20.501803 7.125000 0.000000 0.000000 
-35.243723 17.293133 3.648157 -177.976617 2.642142 -174.813539 -10.329420 -19.333176 -11.281023 -9.506282 7.017481 14.180158 -3.480447 15.064066 -18.091108 9.804500 -17.298400 -58.832900 7.065884 3.598248 -1.009193 7.431211 0.299120 7.712750 0.137203 -2.248657 14.130202 0.000000 0.000000 0.000000 0.965415 2.911318 -4.912700 -0.675223 1.489327 -14.080375 6.438599 -8.495183 16.338611 1.585200 -4.546500 14.485000 -90.081339 11.804474 15.622174 17.741154 -31.063864 -6.257062 -0.533390 2.212472 6.776226 -7.125000 0.000000 0.000000 76.112041 -13.771112 49.593450 -24.132757 38.240406 -6.759134 1.489406 -2.073478 -20.963622 7.125000 0.000000 0.000000 
-35.247141 17.290928 3.650803 -177.957470 2.601528 -174.785690 -10.301102 -19.314312 -11.331085 -9.506242 7.014657 14.152772 -3.505499 15.109609 -18.054082 9.683400 -17.227900 -58.424700 7.063675 3.599294 -1.005952 7.430957 0.300873 7.713951 0.137399 -2.246802 14.130903 0.000000 0.000000 0.000000 0.968509 2.926211 -4.937408 -0.656105 1.506817 -14.206764 6.441844 -8.417332 16.305748 1.593000 -4.518900 14.424800 -90.117571 11.822895 15.655478 17.933633 -31.241817 -6.318199 -0.561415 2.210911 6.753398 -7.125000 0.000000 0.000000 76.342804 -13.875870 49.414799 -24.273748 38.395439 -6.838103 1.461427 -2.104497 -20.924704 7.125000 0.000000 0.000000 
-35.248244 17.290487 3.651354 -177.903200 2.553893 -174.768792 -10.232204 -19.306057 -11.362227 -9.513044 6.990076 14.090593 -3.778501 15.763536 -17.895564 9.706900 -17.241700 -58.504100 7.062816 3.599719 -1.004668 7.430856 0.301574 7.714424 0.137469 -2.246081 14.131185 0.000000 0.000000 0.000000 0.982603 2.908380 -4.939151 -0.554547 1.514155 -14.207640 6.587297 -8.349247 16.284947 1.722400 -4.498400 14.408300 -90.104043 11.849583 15.915081 18.148305 -31.450414 -6.387514 -0.586297 2.206655 6.528599 -7.125000 0.000000 0.000000 76.290611 -13.799063 49.534557 -24.329610 38.431009 -6.851913 1.454476 -2.102821 -20.985264 7.125000 0.000000 0.000000 
